<?xml version="1.0" encoding="utf-8"?>
<!-- Generator: Adobe Illustrator 16.0.0, SVG Export Plug-In . SVG Version: 6.00 Build 0)  -->
<!DOCTYPE svg PUBLIC "-//W3C//DTD SVG 1.1//EN" "http://www.w3.org/Graphics/SVG/1.1/DTD/svg11.dtd">
<svg version="1.1" id="Capa_1" xmlns="http://www.w3.org/2000/svg" xmlns:xlink="http://www.w3.org/1999/xlink" x="0px" y="0px"
	 width="82px" height="70.833px" viewBox="0 -42.833 82 70.833" enable-background="new 0 -42.833 82 70.833" xml:space="preserve">
<path fill="#FF1AC2" d="M34.427-16.619l7.448,10.563c0,4.354,0.376,8.653-0.08,12.852c-0.964,8.885-5.544,15.375-14.064,18.37
	c-6.916,2.425-13.363,0.986-19.05-3.685c-3.933-3.231-6.218-7.468-7.259-12.43c-0.113-0.537-0.121-1.095-0.19-1.77l7.778-5.518
	v2.591c-0.016,4.254,1.56,7.789,4.772,10.545c1.763,1.519,3.943,2.47,6.256,2.725c8.055,0.989,13.82-5.945,13.871-12.61
	c0.05-6.839,0.168-13.673,0.261-20.509v-1.058l0.26-0.067H34.427z M33.203-41.161c0.246,0.469,1.961,2.888,2.27,3.316
	c7.082,9.84,14.175,19.671,21.271,29.503c0.639,0.884,1.293,1.756,2.078,2.815c1.734-1.959,3.029-4.062,4.494-6.03
	c1.459-1.961,2.869-3.953,4.305-5.942H77.76L63.967,1.646l16.805,23.317H70.646L59.061,8.55l-2.707,3.556h-3.222L44,24.726h-6.833
	L54.006,1.35L33.624-27.615l-0.421-11.637C33.18-40.117,33.168-39.761,33.203-41.161z M8.708-4.347v3.601L1.229,4.515V1.109
	L8.708-4.347L8.708-4.347z M8.708-17.983v8.771L1.229-3.669v-3.455L8.708-17.983z"/>
</svg>
